<svg width="101" height="24" viewBox="0 0 101 24" fill="none" xmlns="http://www.w3.org/2000/svg">
<path d="M7.04688 23.2188C4.23438 22.4297 2.82812 20.6133 2.82812 17.7695V15.4375C2.82812 13.7891 2.13281 12.9648 0.742188 12.9648V10.5391C2.10156 10.5391 2.79688 9.76172 2.82812 8.20703V5.72266C2.82812 4.27734 3.17969 3.10938 3.88281 2.21875C4.58594 1.32812 5.64062 0.683594 7.04688 0.285156L7.70312 2.17188C7.10938 2.39063 6.66016 2.77344 6.35547 3.32031C6.05078 3.85938 5.89062 4.60938 5.875 5.57031V8.03125C5.875 9.79688 5.17578 11.0352 3.77734 11.7461C5.17578 12.4648 5.875 13.7109 5.875 15.4844V17.9688C5.91406 19.7969 6.52344 20.9141 7.70312 21.3203L7.04688 23.2188ZM14.8516 12.5664C14.8516 10.5898 15.293 9.01562 16.1758 7.84375C17.0664 6.67188 18.2812 6.08594 19.8203 6.08594C21.0547 6.08594 22.0742 6.54687 22.8789 7.46875V1H26.2773V19H23.2188L23.0547 17.6523C22.2109 18.707 21.125 19.2344 19.7969 19.2344C18.3047 19.2344 17.1055 18.6484 16.1992 17.4766C15.3008 16.2969 14.8516 14.6602 14.8516 12.5664ZM18.2383 12.8125C18.2383 14 18.4453 14.9102 18.8594 15.543C19.2734 16.1758 19.875 16.4922 20.6641 16.4922C21.7109 16.4922 22.4492 16.0508 22.8789 15.168V10.1641C22.457 9.28125 21.7266 8.83984 20.6875 8.83984C19.0547 8.83984 18.2383 10.1641 18.2383 12.8125ZM28.375 12.543C28.375 11.2852 28.6172 10.1641 29.1016 9.17969C29.5859 8.19531 30.2812 7.43359 31.1875 6.89453C32.1016 6.35547 33.1602 6.08594 34.3633 6.08594C36.0742 6.08594 37.4688 6.60938 38.5469 7.65625C39.6328 8.70312 40.2383 10.125 40.3633 11.9219L40.3867 12.7891C40.3867 14.7344 39.8438 16.2969 38.7578 17.4766C37.6719 18.6484 36.2148 19.2344 34.3867 19.2344C32.5586 19.2344 31.0977 18.6484 30.0039 17.4766C28.918 16.3047 28.375 14.7109 28.375 12.6953V12.543ZM31.7617 12.7891C31.7617 13.9922 31.9883 14.9141 32.4414 15.5547C32.8945 16.1875 33.543 16.5039 34.3867 16.5039C35.207 16.5039 35.8477 16.1914 36.3086 15.5664C36.7695 14.9336 37 13.9258 37 12.543C37 11.3633 36.7695 10.4492 36.3086 9.80078C35.8477 9.15234 35.1992 8.82812 34.3633 8.82812C33.5352 8.82812 32.8945 9.15234 32.4414 9.80078C31.9883 10.4414 31.7617 11.4375 31.7617 12.7891ZM93.2969 21.3203C94.4844 20.8984 95.0938 19.7656 95.125 17.9219V15.4375C95.125 13.6719 95.8398 12.4453 97.2695 11.7578C95.8398 11.0703 95.125 9.82422 95.125 8.01953V5.57031C95.0938 3.75 94.4844 2.61719 93.2969 2.17188L93.9531 0.285156C95.3516 0.675781 96.4023 1.31641 97.1055 2.20703C97.8086 3.08984 98.1641 4.25 98.1719 5.6875V8.20703C98.2031 9.76172 98.8984 10.5391 100.258 10.5391V12.9648C98.8672 12.9648 98.1719 13.7812 98.1719 15.4141V17.957C98.1094 20.6914 96.7031 22.4453 93.9531 23.2188L93.2969 21.3203Z" fill="#6B7280"/>
<path d="M49.8203 19C49.6641 18.6953 49.5508 18.3164 49.4805 17.8633C48.6602 18.7773 47.5938 19.2344 46.2812 19.2344C45.0391 19.2344 44.0078 18.875 43.1875 18.1562C42.375 17.4375 41.9688 16.5312 41.9688 15.4375C41.9688 14.0938 42.4648 13.0625 43.457 12.3438C44.457 11.625 45.8984 11.2617 47.7812 11.2539H49.3398V10.5273C49.3398 9.94141 49.1875 9.47266 48.8828 9.12109C48.5859 8.76953 48.1133 8.59375 47.4648 8.59375C46.8945 8.59375 46.4453 8.73047 46.1172 9.00391C45.7969 9.27734 45.6367 9.65234 45.6367 10.1289H42.25C42.25 9.39453 42.4766 8.71484 42.9297 8.08984C43.3828 7.46484 44.0234 6.97656 44.8516 6.625C45.6797 6.26562 46.6094 6.08594 47.6406 6.08594C49.2031 6.08594 50.4414 6.48047 51.3555 7.26953C52.2773 8.05078 52.7383 9.15234 52.7383 10.5742V16.0703C52.7461 17.2734 52.9141 18.1836 53.2422 18.8008V19H49.8203ZM47.0195 16.6445C47.5195 16.6445 47.9805 16.5352 48.4023 16.3164C48.8242 16.0898 49.1367 15.7891 49.3398 15.4141V13.2344H48.0742C46.3789 13.2344 45.4766 13.8203 45.3672 14.9922L45.3555 15.1914C45.3555 15.6133 45.5039 15.9609 45.8008 16.2344C46.0977 16.5078 46.5039 16.6445 47.0195 16.6445ZM66.7656 12.7773C66.7656 14.8086 66.332 16.3945 65.4648 17.5352C64.5977 18.668 63.3867 19.2344 61.832 19.2344C60.457 19.2344 59.3594 18.707 58.5391 17.6523L58.3867 19H55.3398V1H58.7266V7.45703C59.5078 6.54297 60.5352 6.08594 61.8086 6.08594C63.3555 6.08594 64.5664 6.65625 65.4414 7.79688C66.3242 8.92969 66.7656 10.5273 66.7656 12.5898V12.7773ZM63.3789 12.5312C63.3789 11.25 63.1758 10.3164 62.7695 9.73047C62.3633 9.13672 61.7578 8.83984 60.9531 8.83984C59.875 8.83984 59.1328 9.28125 58.7266 10.1641V15.168C59.1406 16.0586 59.8906 16.5039 60.9766 16.5039C62.0703 16.5039 62.7891 15.9648 63.1328 14.8867C63.2969 14.3711 63.3789 13.5859 63.3789 12.5312ZM72.4375 19H69.0391V1H72.4375V19ZM81.0742 19.2344C79.2148 19.2344 77.6992 18.6641 76.5273 17.5234C75.3633 16.3828 74.7812 14.8633 74.7812 12.9648V12.6367C74.7812 11.3633 75.0273 10.2266 75.5195 9.22656C76.0117 8.21875 76.707 7.44531 77.6055 6.90625C78.5117 6.35937 79.543 6.08594 80.6992 6.08594C82.4336 6.08594 83.7969 6.63281 84.7891 7.72656C85.7891 8.82031 86.2891 10.3711 86.2891 12.3789V13.7617H78.2148C78.3242 14.5898 78.6523 15.2539 79.1992 15.7539C79.7539 16.2539 80.4531 16.5039 81.2969 16.5039C82.6016 16.5039 83.6211 16.0312 84.3555 15.0859L86.0195 16.9492C85.5117 17.668 84.8242 18.2305 83.957 18.6367C83.0898 19.0352 82.1289 19.2344 81.0742 19.2344ZM80.6875 8.82812C80.0156 8.82812 79.4688 9.05469 79.0469 9.50781C78.6328 9.96094 78.3672 10.6094 78.25 11.4531H82.9609V11.1836C82.9453 10.4336 82.7422 9.85547 82.3516 9.44922C81.9609 9.03516 81.4062 8.82812 80.6875 8.82812Z" fill="#EC4899"/>
</svg>
